<svg width="1920" height="1080" viewBox="0 0 1920 1080" fill="none" xmlns="http://www.w3.org/2000/svg">
<g clip-path="url(#clip0)">
<rect width="1920" height="1080" fill="#1F2125"/>
<path d="M1 180.453L1 -12.505C960.999 130.782 1441 81.8271 1921 177.59L1 180.453Z" fill="#0B0D11"/>
<path d="M1929 179.485V709.106C969.754 313.32 490.132 446.44 10.5088 182.345L1929 179.485Z" fill="#131517"/>
<path d="M1929 178.712V634.227C964.5 294.029 482.25 408.626 0.00011647 181.588L1929 178.712Z" fill="#2E303A"/>
<path d="M1929 176.469V544.243C964.588 269.851 482.382 362.513 0.175775 179.345L1929 176.469Z" fill="#0B0D11"/>
<path d="M1929 -10.9256V212.522C965 46.3735 483 102.954 0.999871 -8.0513L1929 -10.9256Z" fill="#0B0D11"/>
</g>
<defs>
<clipPath id="clip0">
<rect width="1920" height="1080" fill="white"/>
</clipPath>
</defs>
</svg>
