<svg width="40" height="28" viewBox="0 0 40 28" fill="none" xmlns="http://www.w3.org/2000/svg">
<path d="M23.9988 5.21976e-05H37.9967C38.488 -0.00349509 38.9634 0.17387 39.3322 0.498313C39.701 0.822756 39.9375 1.27157 39.9964 1.75913V15.9917C40.0282 16.5219 39.8481 17.0429 39.4955 17.4403C39.143 17.8377 38.647 18.0788 38.1167 18.1106C37.5863 18.1424 37.0651 17.9623 36.6675 17.6099C36.27 17.2575 36.0288 16.7617 35.997 16.2316V6.79651L21.3992 21.3889C21.0552 21.7269 20.6007 21.9292 20.1193 21.9585C19.6379 21.9879 19.1621 21.8424 18.7796 21.5488L18.5796 21.3889L14.0003 16.7913L3.4419 27.3858C3.08496 27.7572 2.59836 27.9766 2.08355 27.9982C1.56874 28.0198 1.06546 27.842 0.678647 27.5017C0.291832 27.1614 0.0513411 26.685 0.00731691 26.1718C-0.0367073 25.6586 0.119134 25.1483 0.442346 24.7471L0.602322 24.5472L12.6005 12.5535C12.9456 12.2102 13.4041 12.0046 13.8901 11.9751C14.3761 11.9457 14.8561 12.0945 15.2401 12.3936L15.4401 12.5535L19.9994 17.1911L33.1574 4.01796H23.9988C23.511 4.0166 23.0404 3.83703 22.6758 3.51305C22.3112 3.18906 22.0776 2.74301 22.0191 2.25887V1.99901C22.0156 1.50791 22.193 1.03269 22.5175 0.664004C22.8421 0.295319 23.2911 0.0589729 23.7788 5.21976e-05H37.9967H23.9988Z" fill="#CB0000"/>
</svg>
