<svg width="40" height="37" viewBox="0 0 40 37" fill="none" xmlns="http://www.w3.org/2000/svg">
<path d="M16.1585 2.69885C17.2185 3.39767 18.2384 3.83208 19.0783 3.9454C18.6183 4.79532 18.2784 5.7208 18.1384 6.66516C16.8125 6.3431 15.5636 5.78543 14.4587 5.02197C13.9556 4.6969 13.4684 4.35027 12.9988 3.98317V8.19502C12.9988 8.76163 12.6189 9.29047 12.0589 9.51712C11.9438 9.55702 11.8304 9.60113 11.7189 9.64933C10.3725 10.2532 9.13702 11.0567 8.05928 12.0291C7.23517 12.8584 6.61993 13.8526 6.25944 14.9377C5.85947 16.071 4.85956 17.1287 3.3797 17.3553C3.27016 17.3694 3.17025 17.4219 3.09984 17.5024C3.02944 17.5829 2.9937 17.6855 2.99973 17.7897V21.095C2.99973 21.3972 3.23971 21.6616 3.55968 21.7182C4.81957 21.9071 5.79948 22.6815 6.35943 23.607C6.85938 24.4758 7.7593 25.779 9.05919 27.0255C10.3624 28.2396 11.9958 29.0894 13.7788 29.4809C14.4987 29.5942 14.9987 30.1797 14.9987 30.8596V33.2205C14.9987 33.485 15.2186 33.6927 15.4986 33.6927H17.9984C17.9984 32.1251 19.3383 30.8596 20.9981 30.8596H24.9978C26.6576 30.8596 27.9975 32.1251 27.9975 33.6927H30.4973C30.7772 33.6927 30.9972 33.485 30.9972 33.2205V28.9709C30.9972 28.4421 31.3172 27.951 31.8171 27.7055H31.8571L31.9971 27.6111L32.5571 27.2711C33.9735 26.2591 35.1148 24.9436 35.8867 23.4329C36.6587 21.9223 37.0391 20.2599 36.9967 18.583C36.9967 16.6943 36.6167 15.1455 35.9968 13.8801C36.6967 12.9924 37.2367 11.9913 37.5766 10.9148C39.2159 13.1674 40.0625 15.8503 39.9964 18.583C40.0364 20.7673 39.5107 22.9277 38.4651 24.8764C37.4195 26.8251 35.8857 28.503 33.9969 29.7642V33.2205C33.9969 35.0526 32.4371 36.5258 30.4973 36.5258H27.9975C27.2019 36.5258 26.4389 36.2273 25.8764 35.696C25.3138 35.1647 24.9978 34.4441 24.9978 33.6927H20.9981C20.9981 35.2604 19.6582 36.5258 17.9984 36.5258H15.4986C13.5588 36.5258 11.9989 35.0526 11.9989 33.2205V31.9362C10.1134 31.316 8.38879 30.3246 6.93938 29.0276C5.68502 27.8295 4.60863 26.4761 3.73966 25.0046C3.6751 24.8817 3.58238 24.7738 3.46824 24.6889C3.35411 24.604 3.22139 24.5441 3.07972 24.5136C2.22131 24.3796 1.44093 23.9627 0.877115 23.3368C0.313305 22.711 0.002544 21.9167 0 21.095V17.7897C0 16.1843 1.19989 14.8244 2.87974 14.5789C3.05972 14.5411 3.3197 14.39 3.43969 14.0312C3.81966 12.9357 4.55959 11.3303 5.93947 10.0271C7.13143 8.91787 8.50155 7.99358 9.9991 7.28843V1.90558C9.9991 0.130187 12.2589 -0.587527 13.4788 0.545705C14.1387 1.16898 15.0986 2.00002 16.1585 2.69885Z" fill="#F5F5FD"/>
<path d="M23.3835 12.3779C22.3459 11.9779 21.4776 11.1979 21.2659 10.1579C20.9832 8.74129 21.111 7.27889 21.6358 5.92528C22.1606 4.57166 23.0629 3.37712 24.2474 2.46794C25.4318 1.55875 26.8544 0.968714 28.3646 0.760195C29.8749 0.551677 31.4167 0.732427 32.8272 1.28334C34.2376 1.83425 35.4642 2.73485 36.3774 3.88993C37.2905 5.04501 37.8562 6.41165 38.0147 7.84537C38.1732 9.27909 37.9186 10.7266 37.2777 12.0349C36.6369 13.3432 35.6337 14.4637 34.3741 15.2779C33.4424 15.8779 32.2565 15.8379 31.1976 15.4379L23.3835 12.3779ZM32.7012 12.7379C33.462 12.215 34.0616 11.5101 34.4382 10.6957C34.8147 9.88126 34.9546 8.98678 34.8435 8.10432C34.7324 7.22186 34.3742 6.38332 33.806 5.67503C33.2377 4.96674 32.4798 4.41429 31.6103 4.07456C30.7408 3.73484 29.7912 3.62011 28.8591 3.7422C27.9271 3.86428 27.0464 4.21877 26.3076 4.76916C25.5688 5.31954 24.9987 6.04595 24.656 6.87357C24.3133 7.7012 24.2103 8.60015 24.3576 9.47786L24.4 9.49786L24.6118 9.59786L32.4047 12.6779C32.4858 12.7138 32.5711 12.7407 32.6588 12.7579L32.7012 12.7379ZM14.7647 14.6779C14.7647 15.2083 14.5416 15.717 14.1445 16.0921C13.7473 16.4671 13.2087 16.6779 12.6471 16.6779C12.0854 16.6779 11.5468 16.4671 11.1497 16.0921C10.7525 15.717 10.5294 15.2083 10.5294 14.6779C10.5294 14.1474 10.7525 13.6387 11.1497 13.2636C11.5468 12.8886 12.0854 12.6779 12.6471 12.6779C13.2087 12.6779 13.7473 12.8886 14.1445 13.2636C14.5416 13.6387 14.7647 14.1474 14.7647 14.6779Z" fill="#F5F5FD"/>
</svg>
